# xmcd
#
# Track frame offsets:
# 150
# 20679
# 41229
# 64158
# 81429
# 96445
# 119783
# 133843
# 158077
# 173974
# 192424
# 209665
#
# Disc length: 2973 seconds
#
#
# Revision: 0
# Processed by: cddbd v1.5.1PL2 Copyright (c) Steve Scherf et al.
# Submitted via: FreeRIP 2.00 
#
DISCID=be0b9b0c
DTITLE=Various Artist - Blues Power
DYEAR=2006
DGENRE=Blues
TTITLE0=Blues Power
TTITLE1=Feels Like Rain
TTITLE2=Further On Up The Road
TTITLE3=Givin' It Up For Your Love
TTITLE4=God Bless The Child
TTITLE5=Good Clean Fun
TTITLE6=In The Middle Of The Night
TTITLE7=Midnight Train
TTITLE8=Opposites Attract
TTITLE9=Standing On Shaky Ground
TTITLE10=Voodoo Woman
TTITLE11=You Can Have My Husband
EXTD=Compilation
EXTT0=Koko Taylor
EXTT1=Buddy Guy
EXTT2=Eric Clapton
EXTT3=Delbert McClinton
EXTT4=Eva Cassidy
EXTT5=Allman Brothers
EXTT6=Double Trouble w/Lou Ann Barton, Jimmie Vaughan
EXTT7=Buddy Guy, Jonny Lang
EXTT8=Tom Hambridge, Susan Tedeschi
EXTT9=Delbert McClinton
EXTT10=Koko Taylor
EXTT11=Lou Ann BArton
PLAYORDER=
